<?xml version="1.0" encoding="UTF-8"?> <svg xmlns="http://www.w3.org/2000/svg" width="1460" height="172" viewBox="0 0 1460 172" fill="none"><path d="M987.966 31.7339H994.036C996.044 31.7339 997.482 31.9206 998.35 32.2939C999.228 32.6673 999.929 33.2677 1000.45 34.0952C1000.98 34.9126 1001.24 35.8813 1001.24 37.0015C1001.24 38.4647 1000.83 39.7412 1000 40.8311C999.172 41.9108 998.128 42.6475 996.866 43.041C995.948 43.3337 994.328 43.48 992.007 43.48H988.632L987.209 54H984.984L987.966 31.7339ZM989.934 33.8833L988.904 41.2852H992.007C994.096 41.2852 995.539 41.1439 996.336 40.8613C997.144 40.5687 997.79 40.0742 998.274 39.3779C998.768 38.6715 999.016 37.8895 999.016 37.0317C999.016 36.3254 998.849 35.7249 998.516 35.2305C998.183 34.736 997.724 34.3879 997.139 34.186C996.553 33.9842 995.479 33.8833 993.915 33.8833H989.934ZM1015.24 31.7339L1022.7 54H1020.42L1017.98 46.7192H1008.55L1004.39 54H1001.91L1014.73 31.7339H1015.24ZM1014.53 36.396L1009.78 44.6001H1017.29L1014.53 36.396ZM1027.62 33.8984C1029.36 32.0719 1031.38 31.1587 1033.69 31.1587C1035.4 31.1587 1036.76 31.6632 1037.78 32.6724C1038.8 33.6714 1039.31 34.953 1039.31 36.5171C1039.31 39.2821 1037.94 41.1489 1035.19 42.1177C1037.67 43.258 1038.92 45.0996 1038.92 47.6426C1038.92 49.681 1038.23 51.346 1036.87 52.6377C1035.51 53.9294 1033.69 54.5752 1031.41 54.5752C1027.96 54.5752 1025.43 53.0666 1023.82 50.0493L1025.55 49.1411C1026.64 50.7153 1027.63 51.6891 1028.52 52.0625C1029.42 52.4258 1030.36 52.6074 1031.35 52.6074C1033.12 52.6074 1034.45 52.1079 1035.31 51.1089C1036.19 50.0998 1036.63 48.9897 1036.63 47.7788C1036.63 46.5376 1036.21 45.4478 1035.37 44.5093C1034.54 43.5607 1033.01 43.0864 1030.79 43.0864H1030.41L1030.65 41.3003H1031.39C1033.52 41.3003 1035.01 40.8311 1035.86 39.8926C1036.71 38.9541 1037.13 37.8542 1037.13 36.5928C1037.13 35.4827 1036.78 34.6351 1036.07 34.0498C1035.37 33.4645 1034.5 33.1719 1033.45 33.1719C1031.96 33.1719 1030.46 33.8682 1028.96 35.2607L1027.62 33.8984ZM1045.76 31.7339H1051.83C1053.84 31.7339 1055.27 31.9206 1056.14 32.2939C1057.02 32.6673 1057.72 33.2677 1058.25 34.0952C1058.77 34.9126 1059.03 35.8813 1059.03 37.0015C1059.03 38.4647 1058.62 39.7412 1057.79 40.8311C1056.96 41.9108 1055.92 42.6475 1054.66 43.041C1053.74 43.3337 1052.12 43.48 1049.8 43.48H1046.42L1045 54H1042.78L1045.76 31.7339ZM1047.73 33.8833L1046.7 41.2852H1049.8C1051.89 41.2852 1053.33 41.1439 1054.13 40.8613C1054.94 40.5687 1055.58 40.0742 1056.07 39.3779C1056.56 38.6715 1056.81 37.8895 1056.81 37.0317C1056.81 36.3254 1056.64 35.7249 1056.31 35.2305C1055.98 34.736 1055.52 34.3879 1054.93 34.186C1054.35 33.9842 1053.27 33.8833 1051.71 33.8833H1047.73ZM1073.03 31.7339L1080.5 54H1078.21L1075.77 46.7192H1066.34L1062.18 54H1059.7L1072.52 31.7339H1073.03ZM1072.32 36.396L1067.57 44.6001H1075.08L1072.32 36.396ZM1083.81 54L1086.82 31.7339H1098.09L1097.78 33.9287H1088.84L1087.85 40.8311H1088.84C1092.58 40.8311 1095.06 41.4971 1096.28 42.8291C1097.51 44.1611 1098.12 45.7555 1098.12 47.6123C1098.12 49.0856 1097.73 50.3521 1096.97 51.4116C1096.21 52.4611 1095.29 53.1574 1094.2 53.5005C1093.12 53.8335 1091.71 54 1089.97 54H1083.81ZM1087.58 42.9653L1086.4 51.8203H1089.09C1090.87 51.8203 1092.16 51.7295 1092.95 51.5479C1093.75 51.3662 1094.43 50.9373 1095 50.2612C1095.56 49.575 1095.85 48.6668 1095.85 47.5366C1095.85 46.4165 1095.56 45.4831 1095 44.7363C1094.43 43.9795 1093.71 43.4951 1092.83 43.2832C1091.96 43.0713 1090.6 42.9653 1088.78 42.9653H1087.58ZM1114.6 31.1738C1117.6 31.1738 1120.09 32.1577 1122.08 34.1255C1124.08 36.0933 1125.07 38.5807 1125.07 41.5879C1125.07 45.251 1123.81 48.3288 1121.27 50.8213C1118.75 53.3138 1115.6 54.5601 1111.83 54.5601C1108.62 54.5601 1106.05 53.6014 1104.12 51.6841C1102.2 49.7668 1101.23 47.2591 1101.23 44.1611C1101.23 41.7695 1101.81 39.5747 1102.96 37.5767C1104.12 35.5786 1105.72 34.0145 1107.76 32.8843C1109.81 31.744 1112.09 31.1738 1114.6 31.1738ZM1114.55 33.2778C1112.42 33.2778 1110.52 33.742 1108.85 34.6704C1107.18 35.5988 1105.86 36.9157 1104.88 38.6211C1103.91 40.3265 1103.43 42.1429 1103.43 44.0703C1103.43 45.7051 1103.78 47.1733 1104.49 48.4751C1105.19 49.7668 1106.17 50.7557 1107.41 51.4419C1108.66 52.1281 1110.13 52.4712 1111.81 52.4712C1113.81 52.4712 1115.66 51.9919 1117.37 51.0332C1119.08 50.0645 1120.41 48.7274 1121.38 47.022C1122.36 45.3065 1122.85 43.4548 1122.85 41.4668C1122.85 38.833 1121.93 36.7441 1120.08 35.2002C1118.55 33.9186 1116.7 33.2778 1114.55 33.2778ZM1128.18 31.7339H1141.48L1141.19 33.853H1135.52L1132.84 54H1130.61L1133.29 33.853H1127.89L1128.18 31.7339ZM1152.77 41.3457L1154.08 31.7339H1156.3L1153.29 54H1151.06L1152.49 43.4194H1150.88C1148.39 43.4194 1146.59 43.3135 1145.49 43.1016C1144.4 42.8896 1143.54 42.4154 1142.91 41.6787C1142.27 40.932 1141.95 39.8522 1141.95 38.4395C1141.95 37.9248 1142.02 37.1629 1142.16 36.1538L1142.75 31.7339H1144.92L1144.3 36.29C1144.18 37.2184 1144.12 37.8895 1144.12 38.3032C1144.12 39.161 1144.3 39.8118 1144.66 40.2559C1145.03 40.6999 1145.52 40.9925 1146.13 41.1338C1146.74 41.2751 1147.7 41.3457 1149.01 41.3457H1152.77ZM1175.78 54H1173.48L1175.78 36.9409L1159.53 54H1158.71L1161.72 31.7339H1163.93L1161.58 49.0957L1178.1 31.7339H1178.79L1175.78 54ZM1184.21 31.7339H1186.48L1185.23 40.9824L1195.37 31.7339H1198.38L1187.26 41.6636L1196.2 54H1193.25L1185.5 43.2075L1184.85 43.7676L1183.47 54H1181.2L1184.21 31.7339ZM1224.79 54H1222.49L1224.79 36.9409L1208.54 54H1207.72L1210.73 31.7339H1212.94L1210.6 49.0957L1227.11 31.7339H1227.81L1224.79 54ZM1255.92 54H1253.62L1255.92 36.9409L1239.66 54H1238.84L1241.85 31.7339H1244.06L1241.72 49.0957L1258.23 31.7339H1258.93L1255.92 54ZM1264.35 31.7339H1266.54L1265.35 40.7856H1276.74L1277.96 31.7339H1280.12L1277.2 54H1275.02L1276.49 42.8896H1265.03L1263.58 54H1261.37L1264.35 31.7339ZM1282.94 31.7339H1296.24L1295.95 33.853H1290.28L1287.6 54H1285.37L1288.05 33.853H1282.65L1282.94 31.7339ZM1311.01 31.7339L1310.7 33.8984H1300.68L1299.69 41.1943H1309.71L1309.42 43.3286H1299.4L1298.27 51.8657H1308.29L1308.03 54H1295.76L1298.74 31.7339H1311.01ZM1314.59 54H1312.38L1315.39 31.7339H1326.54L1326.24 33.9287H1317.3L1314.59 54ZM1329.51 31.7339H1335.58C1337.59 31.7339 1339.03 31.9206 1339.89 32.2939C1340.77 32.6673 1341.47 33.2677 1342 34.0952C1342.52 34.9126 1342.79 35.8813 1342.79 37.0015C1342.79 38.4647 1342.37 39.7412 1341.54 40.8311C1340.72 41.9108 1339.67 42.6475 1338.41 43.041C1337.49 43.3337 1335.87 43.48 1333.55 43.48H1330.18L1328.75 54H1326.53L1329.51 31.7339ZM1331.48 33.8833L1330.45 41.2852H1333.55C1335.64 41.2852 1337.08 41.1439 1337.88 40.8613C1338.69 40.5687 1339.33 40.0742 1339.82 39.3779C1340.31 38.6715 1340.56 37.8895 1340.56 37.0317C1340.56 36.3254 1340.39 35.7249 1340.06 35.2305C1339.73 34.736 1339.27 34.3879 1338.68 34.186C1338.1 33.9842 1337.02 33.8833 1335.46 33.8833H1331.48ZM1356.79 31.7339L1364.25 54H1361.96L1359.53 46.7192H1350.1L1345.93 54H1343.45L1356.27 31.7339H1356.79ZM1356.08 36.396L1351.32 44.6001H1358.83L1356.08 36.396ZM1367.94 31.7339H1381.25L1380.96 33.853H1375.28L1372.6 54H1370.38L1373.06 33.853H1367.66L1367.94 31.7339ZM1394.51 31.1738C1397.5 31.1738 1400 32.1577 1401.99 34.1255C1403.98 36.0933 1404.98 38.5807 1404.98 41.5879C1404.98 45.251 1403.72 48.3288 1401.18 50.8213C1398.66 53.3138 1395.51 54.5601 1391.74 54.5601C1388.53 54.5601 1385.96 53.6014 1384.03 51.6841C1382.11 49.7668 1381.14 47.2591 1381.14 44.1611C1381.14 41.7695 1381.72 39.5747 1382.87 37.5767C1384.03 35.5786 1385.63 34.0145 1387.67 32.8843C1389.71 31.744 1392 31.1738 1394.51 31.1738ZM1394.46 33.2778C1392.33 33.2778 1390.43 33.742 1388.76 34.6704C1387.09 35.5988 1385.77 36.9157 1384.79 38.6211C1383.82 40.3265 1383.34 42.1429 1383.34 44.0703C1383.34 45.7051 1383.69 47.1733 1384.4 48.4751C1385.1 49.7668 1386.08 50.7557 1387.32 51.4419C1388.57 52.1281 1390.04 52.4712 1391.72 52.4712C1393.72 52.4712 1395.57 51.9919 1397.28 51.0332C1398.98 50.0645 1400.32 48.7274 1401.29 47.022C1402.27 45.3065 1402.76 43.4548 1402.76 41.4668C1402.76 38.833 1401.83 36.7441 1399.99 35.2002C1398.45 33.9186 1396.61 33.2778 1394.46 33.2778ZM1410.95 31.7339H1417.02C1419.02 31.7339 1420.46 31.9206 1421.33 32.2939C1422.21 32.6673 1422.91 33.2677 1423.43 34.0952C1423.96 34.9126 1424.22 35.8813 1424.22 37.0015C1424.22 38.4647 1423.81 39.7412 1422.98 40.8311C1422.15 41.9108 1421.11 42.6475 1419.85 43.041C1418.93 43.3337 1417.31 43.48 1414.99 43.48H1411.61L1410.19 54H1407.96L1410.95 31.7339ZM1412.91 33.8833L1411.88 41.2852H1414.99C1417.08 41.2852 1418.52 41.1439 1419.32 40.8613C1420.12 40.5687 1420.77 40.0742 1421.25 39.3779C1421.75 38.6715 1422 37.8895 1422 37.0317C1422 36.3254 1421.83 35.7249 1421.5 35.2305C1421.16 34.736 1420.7 34.3879 1420.12 34.186C1419.53 33.9842 1418.46 33.8833 1416.9 33.8833H1412.91ZM1004.21 98H1001.89V80.9409L987.224 98H986.725V75.7339H988.95V93.0957L1003.71 75.7339H1004.21V98ZM1009.63 75.7339H1011.87V85.0732H1023.19V75.7339H1025.43V98H1023.19V87.2529H1011.87V98H1009.63V75.7339ZM1028.64 77.8984V75.7339H1040.85V77.8984H1035.89V98H1033.62V77.8984H1028.64ZM1044.06 75.7339H1056.82V77.9287H1046.29V84.8916H1056.73V87.0713H1046.29V95.8052H1056.73V98H1044.06V75.7339ZM1078.7 98H1076.27L1068.9 80.7896L1061.39 98H1058.97L1068.66 75.7339H1069.14L1078.7 98ZM1100.46 98H1098.04L1090.67 80.7896L1083.16 98H1080.74L1090.43 75.7339H1090.91L1100.46 98ZM1104.22 75.7339H1116.98V77.9287H1106.44V84.8916H1116.89V87.0713H1106.44V95.8052H1116.89V98H1104.22V75.7339ZM1120.82 75.7339H1123.09V84.0894L1131.98 75.7339H1134.99L1124.29 85.7241L1135.82 98H1132.87L1123.09 87.6162V98H1120.82V75.7339ZM1136.93 77.8984V75.7339H1149.14V77.8984H1144.18V98H1141.91V77.8984H1136.93ZM1150.64 75.7944H1153.15L1159.89 90.916L1166.05 75.7339H1168.49L1160.04 95.7446C1159.25 97.6216 1157.86 98.5601 1155.85 98.5601C1155.04 98.5601 1154.28 98.3936 1153.56 98.0605C1152.85 97.7376 1151.94 96.9657 1150.84 95.7446L1152.46 94.4126C1153.58 95.5125 1154.32 96.1382 1154.7 96.2896C1155.07 96.4409 1155.45 96.5166 1155.83 96.5166C1156.42 96.5166 1156.92 96.3602 1157.35 96.0474C1157.78 95.7345 1158.25 94.9525 1158.77 93.7012L1150.64 75.7944ZM1181.47 75.7339L1191.86 98H1189.47L1185.97 90.6738H1176.37L1172.89 98H1170.41L1180.93 75.7339H1181.47ZM1181.2 80.4565L1177.37 88.5244H1184.99L1181.2 80.4565ZM1213.35 98H1210.93L1203.56 80.7896L1196.05 98H1193.63L1203.32 75.7339H1203.8L1213.35 98ZM1217.08 75.7339H1219.3V85.2852H1220.9C1223.82 85.2852 1225.92 85.4264 1227.19 85.709C1228.46 85.9915 1229.48 86.6424 1230.26 87.6616C1231.04 88.6707 1231.42 89.9775 1231.42 91.582C1231.42 93.1562 1231.05 94.4631 1230.29 95.5024C1229.53 96.5317 1228.57 97.2078 1227.4 97.5308C1226.23 97.8436 1224.27 98 1221.51 98H1217.08V75.7339ZM1219.3 95.8506H1221.68C1224.18 95.8506 1225.81 95.7345 1226.57 95.5024C1227.33 95.2603 1227.94 94.8162 1228.38 94.1704C1228.84 93.5246 1229.06 92.6971 1229.06 91.688C1229.06 90.578 1228.78 89.6748 1228.22 88.9785C1227.65 88.2822 1226.93 87.8584 1226.05 87.707C1225.18 87.5456 1223.56 87.4648 1221.18 87.4648H1219.3V95.8506ZM1235.86 75.7339H1238.1V85.0732H1249.42V75.7339H1251.66V98H1249.42V87.2529H1238.1V98H1235.86V75.7339ZM1257.07 75.7339H1259.29V85.2852H1260.9C1263.81 85.2852 1265.91 85.4264 1267.18 85.709C1268.45 85.9915 1269.47 86.6424 1270.25 87.6616C1271.03 88.6707 1271.42 89.9775 1271.42 91.582C1271.42 93.1562 1271.04 94.4631 1270.28 95.5024C1269.52 96.5317 1268.56 97.2078 1267.39 97.5308C1266.22 97.8436 1264.26 98 1261.5 98H1257.07V75.7339ZM1259.29 95.8506H1261.67C1264.17 95.8506 1265.8 95.7345 1266.56 95.5024C1267.32 95.2603 1267.93 94.8162 1268.37 94.1704C1268.83 93.5246 1269.05 92.6971 1269.05 91.688C1269.05 90.578 1268.77 89.6748 1268.21 88.9785C1267.64 88.2822 1266.92 87.8584 1266.04 87.707C1265.17 87.5456 1263.55 87.4648 1261.17 87.4648H1259.29V95.8506ZM1274.03 75.7339H1276.26V98H1274.03V75.7339ZM1280.48 75.7339H1283.09L1288.41 84.4224L1293.79 75.7339H1296.36L1289.73 86.5264L1296.8 98H1294.2L1288.41 88.6606L1282.6 98H1280L1287.1 86.5264L1280.48 75.7339ZM1309.14 75.7339H1313.57C1316.11 75.7339 1317.83 75.8449 1318.72 76.0669C1319.99 76.3797 1321.03 77.0256 1321.84 78.0044C1322.64 78.9731 1323.05 80.1942 1323.05 81.6675C1323.05 83.1509 1322.65 84.377 1321.87 85.3457C1321.08 86.3044 1319.99 86.9502 1318.61 87.2832C1317.6 87.5254 1315.72 87.6465 1312.95 87.6465H1311.36V98H1309.14V75.7339ZM1311.36 77.8984V85.4668L1315.13 85.5122C1316.65 85.5122 1317.77 85.376 1318.48 85.1035C1319.18 84.821 1319.74 84.3719 1320.14 83.7563C1320.54 83.1307 1320.75 82.4344 1320.75 81.6675C1320.75 80.9207 1320.54 80.2396 1320.14 79.624C1319.74 78.9984 1319.2 78.5544 1318.54 78.292C1317.88 78.0296 1316.8 77.8984 1315.3 77.8984H1311.36ZM1327.51 75.7339H1340.27V77.9287H1329.74V84.8916H1340.18V87.0713H1329.74V95.8052H1340.18V98H1327.51V75.7339ZM1346.33 95.896H1355.83V75.7339H1358.07V95.896H1367.73V75.7339H1369.97V98H1344.09V75.7339H1346.33V95.896ZM1375.38 75.7339H1388.14V77.9287H1377.6V84.8916H1388.04V87.0713H1377.6V95.8052H1388.04V98H1375.38V75.7339ZM1391.95 75.7339H1394.19V85.0732H1405.51V75.7339H1407.75V98H1405.51V87.2529H1394.19V98H1391.95V75.7339ZM1430.67 98H1428.35V80.9409L1413.69 98H1413.19V75.7339H1415.41V93.0957L1430.17 75.7339H1430.67V98ZM1453.62 98H1451.3V80.9409L1436.63 98H1436.13V75.7339H1438.36V93.0957L1453.12 75.7339H1453.62V98ZM1439.51 70.4058H1441.51C1441.85 70.9305 1442.31 71.3241 1442.88 71.5864C1443.46 71.8488 1444.15 71.98 1444.94 71.98C1445.75 71.98 1446.4 71.8639 1446.9 71.6318C1447.39 71.3997 1447.86 70.991 1448.3 70.4058H1450.24C1450.02 71.314 1449.45 72.0758 1448.53 72.6914C1447.62 73.2969 1446.42 73.5996 1444.93 73.5996C1443.44 73.5996 1442.23 73.3019 1441.3 72.7065C1440.36 72.1011 1439.76 71.3341 1439.51 70.4058ZM986.77 119.734H991.16C992.926 119.734 994.283 119.946 995.231 120.37C996.18 120.783 996.927 121.424 997.472 122.292C998.027 123.16 998.304 124.124 998.304 125.183C998.304 126.172 998.062 127.075 997.578 127.893C997.093 128.7 996.382 129.356 995.443 129.86C996.604 130.254 997.497 130.718 998.123 131.253C998.748 131.778 999.233 132.418 999.576 133.175C999.929 133.922 1000.11 134.734 1000.11 135.612C1000.11 137.398 999.45 138.912 998.138 140.153C996.836 141.384 995.085 142 992.885 142H986.77V119.734ZM988.95 121.914V129.043H990.221C991.765 129.043 992.9 128.902 993.627 128.619C994.354 128.326 994.929 127.872 995.353 127.257C995.776 126.631 995.988 125.94 995.988 125.183C995.988 124.164 995.63 123.367 994.914 122.792C994.207 122.206 993.077 121.914 991.523 121.914H988.95ZM988.95 131.283V139.82H991.705C993.329 139.82 994.52 139.664 995.277 139.351C996.034 139.028 996.639 138.529 997.093 137.853C997.557 137.176 997.79 136.445 997.79 135.658C997.79 134.669 997.467 133.806 996.821 133.069C996.175 132.333 995.287 131.828 994.157 131.556C993.4 131.374 992.083 131.283 990.206 131.283H988.95ZM1023.72 119.174C1027.09 119.174 1029.91 120.299 1032.18 122.549C1034.45 124.8 1035.59 127.57 1035.59 130.859C1035.59 134.119 1034.45 136.884 1032.18 139.154C1029.92 141.425 1027.16 142.56 1023.9 142.56C1020.6 142.56 1017.82 141.43 1015.54 139.169C1013.27 136.909 1012.14 134.174 1012.14 130.965C1012.14 128.826 1012.65 126.843 1013.68 125.017C1014.72 123.19 1016.14 121.762 1017.92 120.733C1019.71 119.694 1021.64 119.174 1023.72 119.174ZM1023.82 121.354C1022.18 121.354 1020.62 121.782 1019.15 122.64C1017.67 123.498 1016.52 124.653 1015.7 126.106C1014.87 127.56 1014.46 129.179 1014.46 130.965C1014.46 133.609 1015.37 135.844 1017.19 137.671C1019.03 139.487 1021.24 140.396 1023.82 140.396C1025.55 140.396 1027.14 139.977 1028.61 139.139C1030.08 138.302 1031.23 137.156 1032.04 135.703C1032.87 134.25 1033.29 132.635 1033.29 130.859C1033.29 129.093 1032.87 127.499 1032.04 126.076C1031.23 124.643 1030.07 123.498 1028.58 122.64C1027.08 121.782 1025.5 121.354 1023.82 121.354ZM1040.04 142V119.734H1051.19V121.929H1042.23V129.043H1043.28C1046.05 129.043 1048.06 129.29 1049.31 129.785C1050.58 130.269 1051.57 131.041 1052.28 132.101C1053.01 133.15 1053.37 134.321 1053.37 135.612C1053.37 137.308 1052.74 138.796 1051.46 140.078C1050.19 141.359 1048.42 142 1046.15 142H1040.04ZM1042.23 131.283V139.82H1044.97C1046.6 139.82 1047.79 139.664 1048.54 139.351C1049.3 139.028 1049.9 138.539 1050.34 137.883C1050.8 137.217 1051.03 136.475 1051.03 135.658C1051.03 134.628 1050.71 133.756 1050.07 133.039C1049.44 132.323 1048.64 131.853 1047.7 131.631C1046.75 131.399 1045.34 131.283 1043.47 131.283H1042.23ZM1075.85 142H1073.43L1066.06 124.79L1058.55 142H1056.13L1065.81 119.734H1066.3L1075.85 142ZM1088.69 119.734L1099.07 142H1096.68L1093.18 134.674H1083.58L1080.1 142H1077.62L1088.14 119.734H1088.69ZM1088.41 124.457L1084.58 132.524H1092.2L1088.41 124.457ZM1123.27 123.866L1121.52 125.213C1120.55 123.952 1119.38 122.998 1118.02 122.353C1116.67 121.697 1115.18 121.369 1113.56 121.369C1111.78 121.369 1110.13 121.798 1108.62 122.655C1107.11 123.503 1105.93 124.648 1105.09 126.091C1104.27 127.524 1103.85 129.139 1103.85 130.935C1103.85 133.65 1104.78 135.915 1106.64 137.731C1108.5 139.548 1110.86 140.456 1113.69 140.456C1116.81 140.456 1119.42 139.235 1121.52 136.793L1123.27 138.125C1122.16 139.538 1120.78 140.633 1119.11 141.41C1117.46 142.177 1115.6 142.56 1113.56 142.56C1109.66 142.56 1106.59 141.263 1104.34 138.67C1102.45 136.48 1101.51 133.836 1101.51 130.738C1101.51 127.479 1102.65 124.739 1104.93 122.519C1107.22 120.289 1110.08 119.174 1113.52 119.174C1115.6 119.174 1117.48 119.588 1119.16 120.415C1120.83 121.232 1122.2 122.383 1123.27 123.866ZM1125.54 121.898V119.734H1137.76V121.898H1132.79V142H1130.52V121.898H1125.54ZM1158.45 142H1156.13V124.941L1141.47 142H1140.97V119.734H1143.19V137.096L1157.95 119.734H1158.45V142ZM1190.8 131.874H1180.28V129.679H1190.71C1190.52 127.136 1189.46 125.118 1187.54 123.624C1185.64 122.12 1183.52 121.369 1181.2 121.369C1177.85 121.369 1175.2 122.65 1173.24 125.213L1171.47 123.866C1172.48 122.413 1173.83 121.268 1175.54 120.43C1177.26 119.593 1179.15 119.174 1181.23 119.174C1184.64 119.174 1187.49 120.284 1189.78 122.504C1192.08 124.724 1193.23 127.469 1193.23 130.738C1193.23 134.038 1192.15 136.833 1189.97 139.124C1187.8 141.415 1184.87 142.56 1181.2 142.56C1177.04 142.56 1173.8 141.082 1171.47 138.125L1173.24 136.793C1175.32 139.235 1177.92 140.456 1181.05 140.456C1183.44 140.456 1185.56 139.76 1187.41 138.367C1189.26 136.965 1190.39 134.8 1190.8 131.874ZM1197.69 119.734H1199.93V129.073H1211.25V119.734H1213.49V142H1211.25V131.253H1199.93V142H1197.69V119.734ZM1218.92 119.734H1231.68V121.929H1221.15V128.892H1231.59V131.071H1221.15V139.805H1231.59V142H1218.92V119.734ZM1235.51 119.734H1239.95C1242.49 119.734 1244.21 119.845 1245.09 120.067C1246.36 120.38 1247.4 121.026 1248.21 122.004C1249.02 122.973 1249.42 124.194 1249.42 125.667C1249.42 127.151 1249.03 128.377 1248.24 129.346C1247.45 130.304 1246.37 130.95 1244.99 131.283C1243.98 131.525 1242.09 131.646 1239.33 131.646H1237.74V142H1235.51V119.734ZM1237.74 121.898V129.467L1241.51 129.512C1243.03 129.512 1244.14 129.376 1244.85 129.104C1245.56 128.821 1246.11 128.372 1246.52 127.756C1246.92 127.131 1247.12 126.434 1247.12 125.667C1247.12 124.921 1246.92 124.24 1246.52 123.624C1246.11 122.998 1245.58 122.554 1244.91 122.292C1244.26 122.03 1243.18 121.898 1241.67 121.898H1237.74ZM1256.05 142H1253.84V119.734H1265V121.929H1256.05V142ZM1268.21 119.734H1280.97V121.929H1270.43V128.892H1280.88V131.071H1270.43V139.805H1280.88V142H1268.21V119.734ZM1282.6 121.898V119.734H1294.82V121.898H1289.85V142H1287.58V121.898H1282.6ZM1315.51 142H1313.19V124.941L1298.53 142H1298.03V119.734H1300.25V137.096L1315.01 119.734H1315.51V142ZM1320.96 119.734H1323.23V128.089L1332.11 119.734H1335.13L1324.42 129.724L1335.96 142H1333.01L1323.23 131.616V142H1320.96V119.734ZM1356.77 142H1354.46V124.941L1339.79 142H1339.29V119.734H1341.51V137.096L1356.27 119.734H1356.77V142Z" fill="white"></path><path d="M876.743 35.7005C873.317 30.3164 836.572 47.7706 794.653 74.6555C752.734 101.576 721.513 127.722 724.939 133.141C728.365 138.525 765.11 121.071 807.029 94.1858C848.948 67.2657 880.169 41.1197 876.743 35.7005Z" fill="url(#paint0_linear_36_2)"></path><path d="M2 22.9968V149.398H17.6978V37.6357H64.7913V22.9968H2Z" fill="white"></path><path d="M146.462 22.9968H105.452V149.398H121.15V107.98H146.427C172.054 107.98 189.745 91.6872 189.745 65.4004C189.745 39.1137 172.089 22.9968 146.462 22.9968ZM146.462 93.3411H121.185V37.6357H146.462C154.713 37.6357 173.907 41.4714 173.907 65.4356C173.907 89.3998 154.748 93.3411 146.462 93.3411Z" fill="white"></path><path d="M267.29 18L213.554 149.398H230.405L241.138 122.443H293.546L304.279 149.398H321.306L267.29 18ZM246.942 107.804L267.29 56.7439L287.777 107.804H246.942Z" fill="white"></path><path d="M417.38 37.9525H410.773V22.9968H395.075V37.9876H388.467C362.351 37.9876 345.149 53.7878 345.149 80.2505C345.149 106.713 362.491 122.971 388.467 122.971H395.075V149.434H410.773V122.971H417.38C443.322 122.971 460.698 106.678 460.698 80.2505C460.698 53.823 443.182 37.9876 417.38 37.9876V37.9525ZM395.075 107.135H388.467C371.441 107.135 360.847 98.1621 360.847 80.532C360.847 62.902 371.755 53.7526 388.467 53.7526H395.075V107.135ZM417.38 107.135H410.773V53.7526H417.38C434.092 53.7526 445 62.726 445 80.532C445 98.338 434.407 107.135 417.38 107.135Z" fill="white"></path><path d="M487.793 22.9968V37.6357H518.874V149.398H534.572V37.6357H565.653V22.9968H487.793Z" fill="white"></path><path d="M615.754 111.147V22.8211H600.056V153.903L679.069 60.9315V149.399H694.767V18.176L615.754 111.147Z" fill="white"></path><path d="M857.934 69.4473L843.774 79.6171C844.054 81.8341 844.194 84.051 844.194 86.3384C844.194 113.61 825.349 136.765 796.086 136.765C784.968 136.765 775.354 133.422 767.732 127.686C767.138 128.003 766.788 128.179 766.788 128.179C761.859 130.642 757.104 132.93 752.559 135.006C763.502 145.211 778.361 151.404 796.051 151.404C834.579 151.404 859.856 122.302 859.856 86.3384C859.856 79.8986 859.472 75.324 857.899 69.4473H857.934ZM796.086 21.167C757.733 21.167 732.456 50.4448 732.456 86.3735C732.456 92.6021 733.155 97.9158 734.623 103.617C738.609 99.9216 743.294 96.7193 748.503 92.5669C748.259 90.5259 748.154 88.4497 748.154 86.3384C748.154 58.9256 766.998 35.8059 796.086 35.8059C807.064 35.8059 816.539 39.0786 824.16 44.5682C829.44 41.8937 834.474 39.4656 839.334 37.2839C828.426 27.2548 813.637 21.167 796.086 21.167Z" fill="white"></path><line x1="935.5" y1="19.5886" x2="935.5" y2="149.589" stroke="white" stroke-width="3" stroke-linecap="round"></line><defs><linearGradient id="paint0_linear_36_2" x1="724.694" y1="84.4382" x2="876.988" y2="84.4382" gradientUnits="userSpaceOnUse"><stop stop-color="#45B649"></stop><stop offset="1" stop-color="#D7DF23"></stop></linearGradient></defs></svg> 