<svg viewBox="0 0 283.465 202.256" xmlns="http://www.w3.org/2000/svg" xmlns:xlink="http://www.w3.org/1999/xlink" overflow="hidden"><rect x="0" y="0" width="283.465" height="202.256" fill="#B1EC52"/><path d="M396.561 214.012C402.187 213.658 407.836 214.003 413.377 215.038 419.945 216.325 426.396 219.226 430.919 224.288 430.937 221.374 430.919 218.46 430.929 215.547 437.199 215.541 443.469 215.542 449.74 215.549 449.745 232.856 449.748 250.163 449.748 267.472 457.072 259.17 464.355 250.832 471.697 242.545 479.389 242.552 487.083 242.532 494.775 242.555 486.818 251.133 478.786 259.642 470.811 268.202 470.489 268.434 470.778 268.779 470.9 269.027 478.881 282.83 486.848 296.639 494.803 310.454 495.357 311.462 496.011 312.423 496.471 313.485 489.882 313.498 483.293 313.487 476.707 313.49 476.332 313.579 476.163 313.204 476.008 312.956 470.19 302.54 464.329 292.146 458.517 281.727 458.222 281.927 457.948 282.157 457.7 282.414 455.059 285.202 452.398 287.973 449.745 290.752 449.735 298.329 449.733 305.905 449.74 313.48 443.47 313.505 437.201 313.482 430.932 313.493 430.911 311.337 430.942 309.182 430.914 307.027 427.765 309.583 424.155 311.513 420.28 312.711 414.412 314.464 408.308 315.302 402.184 315.193 396.307 315.327 390.445 314.54 384.811 312.862 379.526 311.275 374.749 308.33 370.957 304.32 365.188 298.193 362.44 289.863 361.462 281.645 367.885 280.981 374.31 280.325 380.743 279.76 381.642 284.878 383.511 290.134 387.467 293.693 391.287 297.177 396.594 298.474 401.653 298.512 406.145 298.533 410.854 298.012 414.782 295.665 417.682 293.961 419.862 291.258 420.913 288.062 421.795 285.212 421.34 282.115 419.677 279.638 417.964 277.281 415.211 276.014 412.558 275.026 404.105 272.165 395.233 270.758 386.821 267.776 382.765 266.433 378.929 264.502 375.434 262.045 370.663 258.453 367.252 253.348 365.758 247.565 363.485 238.458 366.365 228.837 373.268 222.477 376.003 220.022 379.176 218.103 382.62 216.821 387.101 215.193 391.8 214.246 396.561 214.012ZM388.655 232.789C387.247 233.499 386.028 234.534 385.1 235.808 383.477 238.334 383.535 241.589 385.245 244.056 386.671 245.865 388.576 247.236 390.743 248.015 395.446 249.854 400.287 251.318 405.221 252.392 410.579 253.614 415.856 255.165 421.023 257.037 424.575 258.279 427.913 260.063 430.919 262.326 430.934 256.177 430.935 250.026 430.921 243.875 426.784 244.044 422.647 244.271 418.508 244.399 417.908 240.78 416.684 237.069 414.036 234.419 411.959 232.492 409.355 231.23 406.556 230.792 403.759 230.302 400.913 230.152 398.08 230.345 394.798 230.467 391.582 231.3 388.655 232.789ZM371.762 319.267C375.473 318.472 379.348 319.09 382.628 321.001 385.773 322.993 387.734 326.407 387.87 330.128 386.129 330.138 384.387 330.105 382.646 330.148 382.211 328.44 381.68 326.552 380.138 325.508 376.831 323.327 371.93 323.452 369.06 326.323 366.807 328.544 366.072 331.834 366.077 334.901 366.097 337.924 366.56 341.132 368.393 343.632 369.719 345.288 371.7 346.286 373.82 346.364 376.265 346.754 378.743 345.892 380.419 344.069 381.751 342.426 382.603 340.447 382.881 338.351 384.66 338.369 386.44 338.348 388.22 338.361 387.98 341.131 387.062 343.799 385.549 346.132 383.827 348.523 381.311 350.225 378.45 350.933 374.462 352.05 370.188 351.425 366.687 349.212 363.245 346.944 361.329 342.963 360.745 338.976 360.088 334.428 360.469 329.52 362.852 325.495 364.786 322.233 368.033 319.963 371.762 319.267ZM418.022 327.298C420.938 326.705 423.968 327.363 426.376 329.111 428.386 330.696 429.794 332.919 430.367 335.414 431.236 338.733 430.932 342.25 429.507 345.371 428.212 348.229 425.654 350.317 422.594 351.012 419.688 351.684 416.634 351.125 414.154 349.47 412.102 347.975 410.633 345.815 409.996 343.359 408.981 339.869 409.279 336.129 410.834 332.845 412.203 329.951 414.876 327.888 418.022 327.298ZM418.794 331.892C417.815 332.109 416.95 332.675 416.357 333.483 415.221 335.092 414.624 337.02 414.654 338.989 414.682 341.293 415.139 343.816 416.878 345.476 418.123 346.514 419.788 346.9 421.363 346.515 422.921 346.12 424.192 344.995 424.772 343.496 425.674 341.208 425.837 338.696 425.239 336.31 424.947 334.884 424.191 333.595 423.089 332.643 421.832 331.786 420.267 331.512 418.794 331.892ZM484.506 327.398C487.35 326.71 490.35 327.195 492.832 328.744 494.745 330.05 496.184 331.942 496.933 334.134 498.252 337.807 498.081 341.851 496.455 345.399 495.149 348.262 492.574 350.346 489.502 351.027 486.658 351.663 483.678 351.131 481.23 349.551 479.342 348.227 477.932 346.329 477.208 344.14 475.915 340.455 476.12 336.411 477.777 332.875 479.075 330.124 481.549 328.11 484.506 327.398ZM485.722 331.9C484.859 332.096 484.084 332.569 483.516 333.248 482.188 334.955 481.522 337.083 481.639 339.242 481.659 341.512 482.193 343.989 483.947 345.573 485.093 346.479 486.576 346.84 488.01 346.564 489.024 346.453 489.957 345.962 490.623 345.19 493.213 341.567 493.18 336.69 490.541 333.103 489.263 331.873 487.428 331.415 485.722 331.9ZM528.929 327.408C531.781 326.705 534.796 327.184 537.29 328.736 539.201 330.038 540.641 331.921 541.396 334.106 542.723 337.786 542.557 341.838 540.934 345.396 539.661 348.184 537.184 350.237 534.21 350.971 528.705 352.465 523.032 349.213 521.538 343.708 521.537 343.705 521.537 343.702 521.536 343.698 520.403 340.128 520.659 336.262 522.253 332.873 523.54 330.137 525.993 328.129 528.929 327.408ZM530.167 331.908C529.305 332.108 528.533 332.586 527.969 333.269 526.656 334.975 525.996 337.093 526.107 339.242 526.137 341.505 526.661 343.971 528.405 345.555 529.648 346.534 531.271 346.887 532.808 346.512 534.35 346.131 535.609 345.021 536.181 343.54 536.769 342.096 537.061 340.548 537.039 338.989 536.93 336.898 536.523 334.63 534.989 333.085 533.706 331.862 531.869 331.413 530.167 331.908ZM389.482 327.75C389.482 335.393 389.482 343.037 389.482 350.68 391.142 350.685 392.799 350.683 394.459 350.683 394.48 347.866 394.426 345.049 394.482 342.232 395.035 341.532 395.648 340.881 396.313 340.286 396.632 340.026 396.877 339.584 397.307 339.52 399.258 343.195 401.027 346.972 402.945 350.667 405.154 350.693 407.364 350.693 409.575 350.667 409.116 350.128 408.703 349.551 408.339 348.944 405.892 344.508 403.441 340.074 400.984 335.644 403.796 333.003 406.653 330.411 409.429 327.732 407.177 327.758 404.914 327.645 402.669 327.786 399.865 330.342 397.232 333.103 394.472 335.715 394.441 333.049 394.479 330.386 394.451 327.725 392.794 327.737 391.137 327.696 389.482 327.75ZM435.459 327.768C435.477 333.128 435.459 338.489 435.47 343.846 435.533 344.554 435.412 345.265 435.12 345.912 433.879 346.4 432.502 346.111 431.202 346.186 431.182 347.8 431.192 349.413 431.197 351.03 433.544 351.004 436.223 351.303 438.174 349.715 439.656 348.229 440.454 346.194 440.375 344.097 440.38 340.151 440.381 336.205 440.378 332.257 442.651 332.247 444.923 332.246 447.194 332.255 447.199 338.397 447.201 344.538 447.199 350.678 448.9 350.69 450.601 350.675 452.304 350.688 452.332 343.032 452.314 335.378 452.312 327.725 446.693 327.755 441.075 327.668 435.459 327.768ZM456.561 327.748C456.54 335.393 456.505 343.042 456.579 350.688 458.226 350.685 459.873 350.667 461.523 350.698 461.571 347.845 461.531 344.993 461.543 342.14 462.439 341.182 463.395 340.282 464.406 339.446 466.265 343.17 468.086 346.921 470.022 350.606 472.218 350.79 474.45 350.632 476.659 350.678 476.16 350.098 475.717 349.472 475.339 348.808 472.923 344.421 470.499 340.038 468.068 335.659 470.849 332.995 473.714 330.424 476.495 327.763 474.621 327.676 472.747 327.753 470.872 327.717 470.364 327.74 469.756 327.602 469.386 328.046 466.771 330.595 464.194 333.184 461.564 335.715 461.515 333.052 461.564 330.385 461.536 327.725 459.878 327.735 458.218 327.699 456.561 327.748ZM499.576 327.75C503.202 327.694 506.831 327.74 510.46 327.725 512.355 327.745 514.416 327.926 515.938 329.18 518.091 331.106 518.596 334.278 517.148 336.778 516.819 337.442 516.173 337.865 515.787 338.489 516.676 339.127 517.797 339.51 518.405 340.483 519.4 342.274 519.534 344.418 518.77 346.318 518.164 347.957 516.885 349.258 515.256 349.891 513.648 350.496 511.933 350.766 510.217 350.683 506.668 350.68 503.121 350.693 499.573 350.675 499.579 343.034 499.579 335.393 499.576 327.75ZM504.717 336.772C506.54 336.726 508.369 336.821 510.192 336.721 511.022 336.624 512.082 336.535 512.511 335.692 512.894 334.867 512.914 333.92 512.564 333.08 512.097 332.403 511.165 332.4 510.432 332.301 508.522 332.201 506.609 332.27 504.696 332.255 504.694 333.759 504.666 335.266 504.717 336.772ZM504.696 341.152C504.707 342.802 504.65 344.454 504.714 346.104 506.591 346.298 508.542 346.14 510.447 346.183 511.576 346.088 513.065 346.17 513.747 345.075 514.257 344.087 514.196 342.901 513.586 341.972 512.829 341.451 511.928 341.177 511.009 341.19 508.905 341.106 506.798 341.167 504.696 341.152Z" fill="#4D5759" fill-rule="evenodd" transform="translate(-338.328 -178.617)"/></svg>