<svg xmlns="http://www.w3.org/2000/svg" viewBox="720 10 160 155" fill="none">
  <defs>
    <linearGradient id="g" x1="724.694" y1="84.4382" x2="876.988" y2="84.4382" gradientUnits="userSpaceOnUse">
      <stop stop-color="#45B649"/>
      <stop offset="1" stop-color="#D7DF23"/>
    </linearGradient>
  </defs>
  <!-- Разорванное кольцо (буква O стилизованная под планету) -->
  <path d="M857.934 69.4473L843.774 79.6171C844.054 81.8341 844.194 84.051 844.194 86.3384C844.194 113.61 825.349 136.765 796.086 136.765C784.968 136.765 775.354 133.422 767.732 127.686C767.138 128.003 766.788 128.179 766.788 128.179C761.859 130.642 757.104 132.93 752.559 135.006C763.502 145.211 778.361 151.404 796.051 151.404C834.579 151.404 859.856 122.302 859.856 86.3384C859.856 79.8986 859.472 75.324 857.899 69.4473H857.934ZM796.086 21.167C757.733 21.167 732.456 50.4448 732.456 86.3735C732.456 92.6021 733.155 97.9158 734.623 103.617C738.609 99.9216 743.294 96.7193 748.503 92.5669C748.259 90.5259 748.154 88.4497 748.154 86.3384C748.154 58.9256 766.998 35.8059 796.086 35.8059C807.064 35.8059 816.539 39.0786 824.16 44.5682C829.44 41.8937 834.474 39.4656 839.334 37.2839C828.426 27.2548 813.637 21.167 796.086 21.167Z" fill="white"/>
  <!-- Диагональная зелёно-жёлтая полоса (кольцо планеты) -->
  <path d="M876.743 35.7005C873.317 30.3164 836.572 47.7706 794.653 74.6555C752.734 101.576 721.513 127.722 724.939 133.141C728.365 138.525 765.11 121.071 807.029 94.1858C848.948 67.2657 880.169 41.1197 876.743 35.7005Z" fill="url(#g)"/>
</svg>
